<svg xmlns="http://www.w3.org/2000/svg" version="1.1" xmlns:xlink="http://www.w3.org/1999/xlink" xmlns:svgjs="http://svgjs.com/svgjs" width="1440" height="560" preserveAspectRatio="none" viewBox="0 0 1440 560"><g mask="url(&quot;#SvgjsMask1145&quot;)" fill="none"><rect width="1440" height="560" x="0" y="0" fill="url(#SvgjsLinearGradient1146)"></rect><path d="M1440 0L1392.66 0L1440 140.09z" fill="rgba(255, 255, 255, .1)"></path><path d="M1392.66 0L1440 140.09L1440 195.95L1356.7 0z" fill="rgba(255, 255, 255, .075)"></path><path d="M1356.7 0L1440 195.95L1440 415.89L1043.64 0z" fill="rgba(255, 255, 255, .05)"></path><path d="M1043.6399999999999 0L1440 415.89L1440 455.57L425.29999999999984 0z" fill="rgba(255, 255, 255, .025)"></path><path d="M0 560L382.26 560L0 405.05z" fill="rgba(0, 0, 0, .1)"></path><path d="M0 405.05L382.26 560L889.24 560L0 351.07z" fill="rgba(0, 0, 0, .075)"></path><path d="M0 351.07000000000005L889.24 560L898.74 560L0 275.95000000000005z" fill="rgba(0, 0, 0, .05)"></path><path d="M0 275.95000000000005L898.74 560L1147.68 560L0 266.43000000000006z" fill="rgba(0, 0, 0, .025)"></path></g><defs><mask id="SvgjsMask1145"><rect width="1440" height="560" fill="#ffffff"></rect></mask><linearGradient x1="84.72%" y1="139.29%" x2="15.28%" y2="-39.29%" gradientUnits="userSpaceOnUse" id="SvgjsLinearGradient1146"><stop stop-color="#0e2a47" offset="0"></stop><stop stop-color="rgba(102, 41, 155, 1)" offset="1"></stop></linearGradient></defs></svg>